<?xml version="1.0" standalone="no"?>
<!DOCTYPE svg PUBLIC "-//W3C//DTD SVG 20010904//EN"
 "http://www.w3.org/TR/2001/REC-SVG-20010904/DTD/svg10.dtd">
<svg version="1.0" xmlns="http://www.w3.org/2000/svg"
 width="105.000000pt" height="82.000000pt" viewBox="0 0 105.000000 82.000000"
 preserveAspectRatio="xMidYMid meet">
<metadata>
Created by potrace 1.15, written by Peter Selinger 2001-2017
</metadata>
<g transform="translate(0.000000,82.000000) scale(0.100000,-0.100000)"
fill="#000000" stroke="none">
<path d="M110 440 l0 -230 45 0 45 0 0 73 c0 71 1 74 38 110 l37 36 61 -107
61 -107 57 -3 c31 -2 56 0 56 3 0 3 -38 67 -85 141 l-86 135 82 87 81 87 -58
3 c-56 3 -61 1 -88 -30 -16 -18 -58 -64 -93 -103 l-63 -69 0 102 0 102 -45 0
-45 0 0 -230z"/>
<path d="M570 440 l0 -230 45 0 45 0 0 85 0 85 70 0 c122 0 181 42 187 132 5
67 -19 116 -67 140 -28 14 -61 18 -157 18 l-123 0 0 -230z m235 125 c14 -13
25 -31 25 -40 0 -9 -11 -27 -25 -40 -20 -21 -34 -25 -85 -25 l-60 0 0 65 0 65
60 0 c51 0 65 -4 85 -25z"/>
</g>
</svg>
